# xmcd
#
# Track frame offsets: 
#        150
#        21117
#        44330
#        70890
#        89292
#        107212
#        133170
#        154032
#        172832
#        191480
#
# Disc length: 2845 seconds
#
# Revision: 2
# Processed by: cddbd v1.5.1PL0 Copyright (c) Steve Scherf et al.
# Submitted via: ExactAudioCopy v0.90b4
#
DISCID=7f0b1b0a
DTITLE=黄莺莺 - 让爱自由
DYEAR=1990
DGENRE=Slow Rock
TTITLE0=哭砂
TTITLE1=宁愿锁上
TTITLE2=风的心
TTITLE3=不问不说
TTITLE4=你为何不要
TTITLE5=让爱自由
TTITLE6=三年三月到九天九夜
TTITLE7=再见还是不见
TTITLE8=听你说你的爱
TTITLE9=藏好一个春天
EXTD=独aa  琵R邾                YU
EXTT0=
EXTT1=
EXTT2=
EXTT3=
EXTT4=
EXTT5=
EXTT6=
EXTT7=
EXTT8=
EXTT9=
PLAYORDER=
